<?xml version="1.0" encoding="UTF-8"?>
<svg version="1.1" xmlns="http://www.w3.org/2000/svg" width="1280" height="854">
<path d="M0 0 C422.4 0 844.8 0 1280 0 C1280 281.82 1280 563.64 1280 854 C857.6 854 435.2 854 0 854 C0 572.18 0 290.36 0 0 Z " fill="#EE1C25" transform="translate(0,0)"/>
<path d="M0 0 C0.33 0 0.66 0 1 0 C1.07476562 0.72703125 1.14953125 1.4540625 1.2265625 2.203125 C2.54881259 12.31444921 5.92359233 22.46104336 13.80078125 29.3984375 C25.43919557 37.87401454 35.7904375 39.6608389 50 38 C52.3150267 37.53704259 54.60321793 37.00288581 56.89868164 36.4519043 C72.78316572 33.03582668 90.64205243 38.52374655 104 47 C120.95323042 59.60381549 128.82074672 76.61793789 132 97 C133.73018715 107.07758131 137.1589986 116.46117101 143.765625 124.37890625 C145 126 145 126 146 129 C147.868545 130.05690171 147.868545 130.05690171 150 131 C151.20487557 131.9150614 152.3917552 132.85415814 153.5625 133.8125 C164.82811767 142.34516227 178.05868521 145.16758511 192 144 C198.51101778 142.853173 204.75098369 141.1451847 211 139 C208.23696353 142.3197677 204.54686657 143.99456988 200.75 145.875 C200.04198242 146.22578613 199.33396484 146.57657227 198.60449219 146.93798828 C174.35955166 158.65117034 148.61045713 160.34393173 123 152 C106.09434155 145.78691744 91.7994762 135.62023705 80 122 C80 121.34 80 120.68 80 120 C79.01 120.495 79.01 120.495 78 121 C94.89525839 140.77104705 117.36487216 155.84524808 144 158 C156.71006387 158.66753406 168.62245489 158.02029037 181 155 C181.87269531 154.80664062 182.74539063 154.61328125 183.64453125 154.4140625 C192.99618564 152.02574612 203.50942979 147.14610889 211 141 C211.66 141.33 212.32 141.66 213 142 C188.54395727 167.53675165 158.08150565 185.19912909 121.8359375 186.3359375 C84.32371869 186.78873123 51.2541 175.40558891 24.0234375 149.046875 C6.73372539 131.83352124 -6.14289818 109.02987215 -11 85 C-11.20238281 84.06929688 -11.40476562 83.13859375 -11.61328125 82.1796875 C-13.09885063 73.95347336 -13.20733819 65.77873682 -13.25 57.4375 C-13.25926514 56.31408203 -13.26853027 55.19066406 -13.27807617 54.03320312 C-13.22429066 39.56384559 -11.17807098 11.17807098 0 0 Z " fill="#FEFDFD" transform="translate(422,292)"/>
<path d="M0 0 C21.67352145 19.20857172 36.43849703 43.07146949 42.81640625 71.49609375 C42.94140625 74.49609375 42.94140625 74.49609375 42.81640625 76.49609375 C42.19765625 75.93341797 42.19765625 75.93341797 41.56640625 75.359375 C32.74505969 67.54224424 23.97634662 61.90036226 11.94140625 62.12109375 C11.14420166 62.13124512 10.34699707 62.14139648 9.52563477 62.15185547 C3.84374342 62.30191463 -1.08871125 62.80799623 -6.18359375 65.49609375 C-7.17552734 65.99496094 -7.17552734 65.99496094 -8.1875 66.50390625 C-13.77271493 69.7748056 -17.92910663 74.24720152 -22.37109375 78.87109375 C-34.45787649 91.34928981 -49.12978334 98.68228736 -66.69140625 99.69921875 C-86.0567678 99.95017376 -102.01808983 93.92107386 -116.18359375 80.49609375 C-117.22975623 79.30962242 -118.25423374 78.10332095 -119.24609375 76.87109375 C-126.30754791 68.15524176 -138.43898051 61.81512732 -149.41796875 59.78125 C-167.21700206 57.94603894 -182.21896612 60.80756531 -196.50390625 72.375 C-201.50950309 77.08559018 -204.92710604 82.47652556 -208.18359375 88.49609375 C-209.18359375 85.49609375 -209.18359375 85.49609375 -208.55371094 83.63354492 C-208.19954102 82.94236572 -207.84537109 82.25118652 -207.48046875 81.5390625 C-207.08279297 80.76288574 -206.68511719 79.98670898 -206.27539062 79.18701172 C-205.83259766 78.36088379 -205.38980469 77.53475586 -204.93359375 76.68359375 C-204.25393555 75.40959717 -204.25393555 75.40959717 -203.56054688 74.10986328 C-191.11474806 51.43341297 -171.0267024 34.19551287 -146.18359375 26.49609375 C-127.87452522 21.43466639 -108.43514711 20.41224263 -90.18359375 26.49609375 C-90.51359375 25.83609375 -90.84359375 25.17609375 -91.18359375 24.49609375 C-114.54649108 16.75580254 -141.02863692 21.33093518 -162.63354492 31.91577148 C-169.41737999 35.42470135 -175.35001792 39.54665571 -181.18359375 44.49609375 C-182.46943359 45.52283203 -182.46943359 45.52283203 -183.78125 46.5703125 C-194.7727263 55.76102143 -201.56752252 67.48712283 -207.58984375 80.29296875 C-209.18359375 83.49609375 -209.18359375 83.49609375 -211.18359375 85.49609375 C-211.40203061 79.03293255 -210.7929728 73.58595203 -209.05859375 67.37109375 C-208.83268555 66.54633545 -208.60677734 65.72157715 -208.37402344 64.87182617 C-199.04106766 31.82026767 -177.86713718 3.03240799 -147.8046875 -14.046875 C-143.65761356 -16.32459457 -139.44531138 -18.4499696 -135.18359375 -20.50390625 C-134.32765625 -20.92285156 -133.47171875 -21.34179688 -132.58984375 -21.7734375 C-88.97136667 -41.04850396 -35.70043313 -30.11430561 0 0 Z " fill="#FEFDFD" transform="translate(852.18359375,330.50390625)"/>
<path d="M0 0 C0.69895386 0.00141495 1.39790771 0.0028299 2.11804199 0.00428772 C4.31832429 0.00981955 6.51849923 0.02235848 8.71875 0.03515625 C10.22395685 0.04018009 11.72916532 0.04474143 13.234375 0.04882812 C16.89586735 0.05976648 20.55729817 0.07698266 24.21875 0.09765625 C24.54875 0.75765625 24.87875 1.41765625 25.21875 2.09765625 C24.55488281 2.4121875 23.89101563 2.72671875 23.20703125 3.05078125 C12.26935306 8.35196251 4.94903607 15.22189145 0.80322266 26.92480469 C-0.21836352 30.72268146 -0.31270413 34.4322143 -0.28125 38.34765625 C-0.27266968 39.5998999 -0.27266968 39.5998999 -0.26391602 40.87744141 C-0.05549936 48.134832 1.68874206 53.73307834 5.21875 60.09765625 C14.7527156 77.35058744 18.54732287 93.6284964 13.21875 113.09765625 C7.89581206 130.9690463 -2.66609536 143.80571418 -18.89379883 152.65209961 C-20.81307073 153.67392168 -22.7397227 154.68204027 -24.67456055 155.67407227 C-38.94718218 163.05785243 -48.47863491 172.61280803 -54.125 187.87890625 C-55.849145 193.70815839 -55.99716642 199.23958101 -56.03125 205.28515625 C-56.051875 206.18041016 -56.0725 207.07566406 -56.09375 207.99804688 C-56.14457392 216.79693741 -54.1482597 224.33713314 -49.71875 231.97265625 C-49.21214844 232.85695313 -48.70554687 233.74125 -48.18359375 234.65234375 C-47.72082031 235.45929688 -47.25804687 236.26625 -46.78125 237.09765625 C-46.10387422 238.42558105 -45.43290835 239.75692376 -44.78125 241.09765625 C-58.29671262 235.02462899 -67.6869698 217.36197541 -73.02294922 204.11425781 C-77.82865958 191.33410083 -79.95986055 179.30546109 -79.96875 165.66015625 C-79.98099609 164.67466797 -79.99324219 163.68917969 -80.00585938 162.67382812 C-80.01807866 156.5275295 -79.37822509 151.02681105 -77.78125 145.09765625 C-77.44673828 143.68033203 -77.44673828 143.68033203 -77.10546875 142.234375 C-74.26555874 131.31030398 -69.88678395 121.58116604 -63.78125 112.09765625 C-67.84609397 115.56232191 -69.68625244 119.52003574 -71.84375 124.28515625 C-72.19518066 125.05037598 -72.54661133 125.8155957 -72.90869141 126.60400391 C-82.98449685 148.82184049 -84.66487796 175.24185855 -76.62109375 198.41796875 C-69.64017911 216.75938752 -59.1395608 232.68029859 -43.78125 245.09765625 C-44.44125 245.42765625 -45.10125 245.75765625 -45.78125 246.09765625 C-48.47192659 244.91497468 -51.00988156 243.67244185 -53.59375 242.28515625 C-54.35840576 241.87571777 -55.12306152 241.4662793 -55.91088867 241.04443359 C-63.13270401 237.07209596 -69.52648632 232.44401855 -75.78125 227.09765625 C-76.55227051 226.44410156 -76.55227051 226.44410156 -77.33886719 225.77734375 C-101.89561971 204.74187885 -119.04466884 173.58255503 -121.78125 141.09765625 C-123.63592551 104.59264881 -114.80430071 70.87182086 -90.37744141 43.04345703 C-76.7786662 28.01095894 -61.14316479 17.55721564 -42.78125 9.09765625 C-41.91242188 8.68773437 -41.04359375 8.2778125 -40.1484375 7.85546875 C-27.75016139 2.43384971 -13.45774399 -0.0542651 0 0 Z " fill="#FEFDFD" transform="translate(674.78125,176.90234375)"/>
<path d="M0 0 C1.13638916 0.00604248 2.27277832 0.01208496 3.44360352 0.01831055 C38.96752686 0.43629866 71.3008875 15.03683665 96.1875 40.25 C122.36899748 68.22368332 131.33593846 102.20208332 130.33105469 139.86035156 C129.3133199 163.89135453 119.28853892 188.60349977 104.1875 207.25 C103.75453613 207.79366211 103.32157227 208.33732422 102.87548828 208.89746094 C91.50827766 223.08570224 78.78470985 233.01981548 63.1875 242.25 C62.8575 241.59 62.5275 240.93 62.1875 240.25 C62.9558946 238.56254518 63.77933166 236.90008457 64.625 235.25 C68.86567206 225.36697716 68.98731869 213.85508468 65.25 203.75 C59.66162684 192.57325368 52.11473389 187.19719995 41.13671875 182.12109375 C25.1938575 174.73723316 13.3459479 163.43489187 6.2578125 147.2109375 C3.32040942 139.08483701 1.67840887 132.06197218 1.8125 123.375 C1.82410156 122.4061084 1.83570313 121.4372168 1.84765625 120.43896484 C2.10993568 108.95459694 4.9201483 100.4623546 10.125 90.37915039 C17.58235506 75.82177186 21.03729783 61.4944273 16.625 45.4375 C11.02542251 29.78990018 1.84749812 19.10563886 -12.92749023 11.76074219 C-17.46552967 9.63252691 -21.92207696 8.33918108 -26.8125 7.25 C-26.8125 6.92 -26.8125 6.59 -26.8125 6.25 C-4.06999438 5.0736635 19.08790837 15.91968074 35.82519531 30.69580078 C52.68082367 45.99108513 66.00915739 67.97154214 67.42578125 91.1484375 C67.43569652 94.19573094 67.374952 97.20911204 67.1875 100.25 C68.1775 100.25 69.1675 100.25 70.1875 100.25 C67.22049117 76.48980732 60.8263239 55.18142674 44.1875 37.25 C43.35605469 36.32703125 42.52460937 35.4040625 41.66796875 34.453125 C23.66614519 15.37066489 -1.14504617 6.56456179 -26.8125 4.25 C-20.98864141 -1.57385859 -7.73784697 -0.06636232 0 0 Z " fill="#FEFDFD" transform="translate(675.8125,420.75)"/>
<path d="M0 0 C19.21399456 23.56996227 21.37009565 58.06270983 18.72314453 87.02978516 C15.83927266 109.72033447 5.10382032 132.88428083 -10 150 C-10.70898438 150.82886719 -11.41796875 151.65773438 -12.1484375 152.51171875 C-33.79916091 177.31509136 -64.71782071 193.60563882 -97.66650391 196.29980469 C-136.03981903 198.26357741 -169.14450398 186.78510924 -197.671875 161.21484375 C-198.11015625 160.81394531 -198.5484375 160.41304687 -199 160 C-196.43806351 158.71903176 -195.72396511 159.29272485 -193 160 C-180.31442776 160.96722838 -169.92050723 158.15850669 -160 150 C-151.91949306 141.05277202 -148.94067005 132.54442613 -147.625 120.8125 C-145.43226714 104.02977235 -138.66030922 87.80292344 -125 77 C-114.29305138 69.2841149 -103.19743336 62.88397951 -89.62109375 62.8671875 C-88.61755859 62.86589844 -87.61402344 62.86460937 -86.58007812 62.86328125 C-85.54302734 62.86714844 -84.50597656 62.87101562 -83.4375 62.875 C-81.87612305 62.86919922 -81.87612305 62.86919922 -80.28320312 62.86328125 C-78.77983398 62.86521484 -78.77983398 62.86521484 -77.24609375 62.8671875 C-75.87988892 62.86887939 -75.87988892 62.86887939 -74.48608398 62.87060547 C-72.16226772 62.99155437 -70.24276345 63.42732057 -68 64 C-64.46159819 64.24629247 -60.9211319 64.23116265 -57.375 64.25 C-56.42753906 64.270625 -55.48007812 64.29125 -54.50390625 64.3125 C-40.42014962 64.3895657 -28.44351016 59.046631 -18.31640625 49.36328125 C-4.73633777 35.50840531 -2.03854519 20.81005082 -2 2 C3.12107293 9.68160939 2.35656821 20.40001988 2.3125 29.3125 C2.30686035 30.50657471 2.3012207 31.70064941 2.29541016 32.9309082 C2.17919808 41.35973574 1.63051168 48.94034955 -1 57 C-1.20399414 57.63405762 -1.40798828 58.26811523 -1.61816406 58.92138672 C-10.05542907 84.62004325 -27.31783642 105.23460653 -51.33203125 117.734375 C-58.33110955 121 -58.33110955 121 -61 121 C-61 121.66 -61 122.32 -61 123 C-47.04999485 117.55206899 -35.88385674 110.38826957 -25 100 C-24.39800781 99.47277344 -23.79601562 98.94554687 -23.17578125 98.40234375 C-9.75937443 86.1743366 -2.55519115 68.12576674 2 51 C2.3403125 49.73542969 2.3403125 49.73542969 2.6875 48.4453125 C5.90546632 34.098546 4.47174199 19.12081589 1 5 C0.65807572 3.33507457 0.32132597 1.66902322 0 0 Z " fill="#FEFDFD" transform="translate(644,433)"/>
<path d="M0 0 C1.65 1.65 3.3 3.3 5 5 C5.928125 5.886875 6.85625 6.77375 7.8125 7.6875 C10 10 10 10 10 12 C10.91523438 11.566875 11.83046875 11.13375 12.7734375 10.6875 C14.55621094 9.8521875 14.55621094 9.8521875 16.375 9 C17.55835938 8.443125 18.74171875 7.88625 19.9609375 7.3125 C23 6 23 6 25 6 C23.87723379 9.08760709 22.54226857 11.78529371 20.8125 14.5625 C18.79342531 17.64355393 18.79342531 17.64355393 19.1640625 19.953125 C20.21670749 22.53062955 21.67139679 24.15122119 23.5625 26.1875 C27 29.91549296 27 29.91549296 27 31 C22.05 30.67 17.1 30.34 12 30 C10.865625 31.98 9.73125 33.96 8.5625 36 C7.4062303 38.0182162 6.2264128 40.02362253 5 42 C4.67 42 4.34 42 4 42 C2.74831071 36.6088658 2.93351108 31.51858026 3 26 C-2.28 25.01 -7.56 24.02 -13 23 C-8.71889901 19.78917426 -4.89641495 18.08817696 0 16 C0 10.72 0 5.44 0 0 Z " fill="#EE252E" transform="translate(480,372)"/>
<path d="M0 0 C4.18342191 3.34673753 6.76775279 5.93660351 10 10 C10.58007812 9.80664062 11.16015625 9.61328125 11.7578125 9.4140625 C16.171875 7.94270833 20.5859375 6.47135417 25 5 C23.87723379 8.08760709 22.54226857 10.78529371 20.8125 13.5625 C18.80580763 16.63730823 18.80580763 16.63730823 19.1328125 18.91796875 C20.29835366 21.71631756 22.00721444 23.53159653 24.0625 25.75 C25.16271484 26.94882812 25.16271484 26.94882812 26.28515625 28.171875 C26.85105469 28.77515625 27.41695312 29.3784375 28 30 C23.80367535 31.31307314 21.18543252 30.24828689 17 29 C14.51068972 28.45311487 14.51068972 28.45311487 12 29 C9.8598745 31.4097451 9.8598745 31.4097451 8.1875 34.5 C7.58292969 35.5209375 6.97835937 36.541875 6.35546875 37.59375 C5.90816406 38.3878125 5.46085938 39.181875 5 40 C2.22957891 37.22957891 2.60203894 35.23466195 2.375 31.375 C2.26285156 29.59222656 2.26285156 29.59222656 2.1484375 27.7734375 C2.09945312 26.85820313 2.05046875 25.94296875 2 25 C1.01 24.87625 0.02 24.7525 -1 24.625 C-5.08880024 24.04805273 -9.00861887 23.05036346 -13 22 C-10.894132 19.894132 -9.2634771 19.07247753 -6.5625 17.875 C-5.78003906 17.52179687 -4.99757813 17.16859375 -4.19140625 16.8046875 C-2 16 -2 16 1 16 C0.67 10.72 0.34 5.44 0 0 Z " fill="#EE242D" transform="translate(552,540)"/>
<path d="M0 0 C2.55312479 2.55312479 5.10253704 5.12094112 7.4375 7.875 C9.79797765 10.29257061 9.79797765 10.29257061 12.75 10 C16.85921746 8.7356254 20.94604724 7.43239664 25 6 C23.87143823 9.10354488 22.53589716 11.7427196 20.75 14.5 C18.71253211 17.7407505 18.71253211 17.7407505 19.375 20.5625 C21.21722451 23.32583677 23.30404574 25.44314195 25.7578125 27.66796875 C27 29 27 29 27 31 C21.86496656 30.35812082 17.0056546 29.31727753 12 28 C11.773125 28.66 11.54625 29.32 11.3125 30 C9.60300277 33.90742225 7.47531064 37.52421538 5 41 C4.67 41 4.34 41 4 41 C2.67713754 36.03926578 2.91106803 31.08888488 3 26 C2.18015625 25.87882813 1.3603125 25.75765625 0.515625 25.6328125 C-0.56203125 25.46523438 -1.6396875 25.29765625 -2.75 25.125 C-3.81734375 24.96257813 -4.8846875 24.80015625 -5.984375 24.6328125 C-9 24 -9 24 -13 22 C-8.71 20.02 -4.42 18.04 0 16 C0 10.72 0 5.44 0 0 Z " fill="#EE242D" transform="translate(733,523)"/>
<path d="M0 0 C3.62819486 3.62819486 6.79441627 7.06171141 10 11 C13.35867712 10.24029922 16.52123658 9.12906745 19.75 7.9375 C20.73484375 7.57527344 21.7196875 7.21304687 22.734375 6.83984375 C23.48203125 6.56269531 24.2296875 6.28554688 25 6 C23.83712962 9.06766258 22.58450457 11.80533766 20.8125 14.5625 C18.79362001 17.64298914 18.79362001 17.64298914 19.1640625 19.94921875 C20.21899211 22.53724701 21.67739406 24.19352079 23.5625 26.25 C24.20316406 26.95640625 24.84382812 27.6628125 25.50390625 28.390625 C25.99761719 28.92171875 26.49132812 29.4528125 27 30 C23.58860997 31.09651823 20.79344419 30.94215473 17.25 30.5625 C16.26515625 30.46066406 15.2803125 30.35882813 14.265625 30.25390625 C13.14414062 30.12822266 13.14414062 30.12822266 12 30 C11.50628906 30.86625 11.01257813 31.7325 10.50390625 32.625 C9.86324219 33.73875 9.22257813 34.8525 8.5625 36 C7.92441406 37.11375 7.28632812 38.2275 6.62890625 39.375 C6.09136719 40.24125 5.55382812 41.1075 5 42 C4.67 42 4.34 42 4 42 C2.87137825 36.63904667 2.90311779 31.44693314 3 26 C2.030625 25.87625 1.06125 25.7525 0.0625 25.625 C-4.34815777 25.00136191 -8.66477759 24.01253494 -13 23 C-10.894132 20.894132 -9.2634771 20.07247753 -6.5625 18.875 C-5.78003906 18.52179688 -4.99757813 18.16859375 -4.19140625 17.8046875 C-2 17 -2 17 1 17 C0.67 11.39 0.34 5.78 0 0 Z " fill="#EE242C" transform="translate(617,252)"/>
<path d="M0 0 C1.13199353 0.9080162 2.25532363 1.82683826 3.375 2.75 C4.00148438 3.26046875 4.62796875 3.7709375 5.2734375 4.296875 C7.08312318 6.08199481 8.00117455 7.67949644 9 10 C9.98742187 9.55527344 10.97484375 9.11054688 11.9921875 8.65234375 C13.28627697 8.08031869 14.58055781 7.50872644 15.875 6.9375 C16.52597656 6.64294922 17.17695312 6.34839844 17.84765625 6.04492188 C19.54010541 5.30338487 21.26868575 4.64560999 23 4 C23.66 4.33 24.32 4.66 25 5 C24.47148438 5.81984375 23.94296875 6.6396875 23.3984375 7.484375 C22.73070312 8.56203125 22.06296875 9.6396875 21.375 10.75 C20.36566406 12.35101563 20.36566406 12.35101563 19.3359375 13.984375 C17.71093988 16.80355446 17.71093988 16.80355446 18.5625 19.125 C20.18416941 21.24022097 21.84141608 23.26824009 23.625 25.25 C24.25664063 25.95640625 24.88828125 26.6628125 25.5390625 27.390625 C26.02117188 27.92171875 26.50328125 28.4528125 27 29 C23.19068824 30.26977059 21.18381007 29.52074507 17.3125 28.5625 C15.54326172 28.13130859 15.54326172 28.13130859 13.73828125 27.69140625 C12.83464844 27.46324219 11.93101562 27.23507812 11 27 C10.72285156 27.73605469 10.44570313 28.47210938 10.16015625 29.23046875 C9.09367794 31.77637151 7.9071946 33.98292438 6.4375 36.3125 C6.00308594 37.00988281 5.56867187 37.70726562 5.12109375 38.42578125 C4.56615234 39.20501953 4.56615234 39.20501953 4 40 C3.67 40 3.34 40 3 40 C2.67 34.72 2.34 29.44 2 24 C0.824375 23.87625 -0.35125 23.7525 -1.5625 23.625 C-5.54120426 23.13564065 -9.17766559 22.1944795 -13 21 C-8.95001278 17.59801074 -4.36373351 15 1 15 C0.835 14.01 0.67 13.02 0.5 12 C-0.08474517 7.97267058 -0.07132024 4.06525377 0 0 Z " fill="#EE232C" transform="translate(774,347)"/>
<path d="M0 0 C0.495 1.485 0.495 1.485 1 3 C0.4423999 2.90912109 -0.1152002 2.81824219 -0.68969727 2.72460938 C-29.26593235 -1.85463323 -56.50307234 -0.47012691 -80.99609375 16.75 C-97.09840879 28.81103181 -112.65296092 44.87397668 -117.77734375 65.0625 C-117.85082031 65.701875 -117.92429687 66.34125 -118 67 C-118.99 66.34 -119.98 65.68 -121 65 C-116.46609472 44.23459769 -98.44939236 24.57719375 -81.25 13.3125 C-56.49598438 -2.17730841 -28.52430335 -7.57043122 0 0 Z " fill="#F0373F" transform="translate(761,354)"/>
<path d="M0 0 C0.33 0 0.66 0 1 0 C7.57408196 25.82675057 3.98677264 51.80922067 -9.20703125 75.03125 C-13.65235857 82.39617375 -19.01568948 88.83172333 -25 95 C-25.59941406 95.67289063 -26.19882812 96.34578125 -26.81640625 97.0390625 C-35.2332385 106.16487198 -47.25640704 113.98690169 -59 118 C-59.99 118 -60.98 118 -62 118 C-62 117.34 -62 116.68 -62 116 C-60.99582031 115.52691406 -59.99164062 115.05382812 -58.95703125 114.56640625 C-35.04700778 103.09947419 -15.39458531 86.48996802 -6 61 C-1.71029054 48.70827217 0.16753782 37.69829096 0.125 24.625 C0.12886719 23.44421875 0.13273438 22.2634375 0.13671875 21.046875 C0.13099883 15.9103858 0.06451025 10.87447302 -0.5703125 5.7734375 C-1 2 -1 2 0 0 Z " fill="#EF353D" transform="translate(645,438)"/>
<path d="M0 0 C0.66 0 1.32 0 2 0 C0.46810734 4.06218304 -1.4334018 7.83876948 -3.4375 11.6875 C-6.32206435 17.33356581 -8.39798715 22.87599342 -10 29 C-10.556875 30.5778125 -10.556875 30.5778125 -11.125 32.1875 C-18.21309895 54.97067519 -11.79935419 82.06694932 -1.25 102.6875 C4.87151123 113.33989355 13.36453699 126.17553973 25 131 C24.67 131.66 24.34 132.32 24 133 C15.40103283 131.70130015 8.2243063 121.43066673 3.16015625 115 C-4.14491718 104.85479856 -9.32447519 93.94281518 -13 82 C-13.40605469 80.68443115 -13.40605469 80.68443115 -13.8203125 79.34228516 C-16.05733423 71.37355788 -16.45346204 63.87223207 -16.375 55.625 C-16.38660156 54.41328125 -16.39820313 53.2015625 -16.41015625 51.953125 C-16.35874727 35.87925001 -12.09195808 12.09195808 0 0 Z " fill="#F0373F" transform="translate(609,289)"/>
<path d="M0 0 C3 0 3 0 4.4375 1.3984375 C4.953125 2.05070312 5.46875 2.70296875 6 3.375 C14.39077907 13.28978278 23.58310347 20.10655573 35 26 C35.845625 26.47179687 36.69125 26.94359375 37.5625 27.4296875 C59.62358125 38.81377109 85.6493173 38.37157112 108.82006836 31.30395508 C115.2878423 29.23803108 121.04908165 26.59404978 126.828125 23.0390625 C129 22 129 22 132 23 C127.87723184 26.64205013 123.60377355 28.8553002 118.625 31.0625 C117.83641602 31.41320557 117.04783203 31.76391113 116.23535156 32.12524414 C108.93612073 35.24479288 101.84004118 36.8542935 94 38 C93.07445312 38.18175781 92.14890625 38.36351562 91.1953125 38.55078125 C65.20296917 42.20496155 40.53621654 35.00740267 19.2890625 20.09765625 C2.34222399 7.02667197 2.34222399 7.02667197 0 0 Z " fill="#F0373F" transform="translate(499,412)"/>
<path d="M0 0 C24.82353473 5.51997022 48.28944695 20.49523256 62.3203125 41.91796875 C72.09837695 58.18384848 79.71606786 75.22989186 78.96875 94.66015625 C77.97875 94.66015625 76.98875 94.66015625 75.96875 94.66015625 C75.94296875 93.90734375 75.9171875 93.15453125 75.890625 92.37890625 C74.45810392 65.55169331 62.48453166 41.98279824 42.61181641 24.04443359 C27.91878633 11.66561034 9.79860879 4.52803053 -9.03125 1.66015625 C-5.60714333 -0.62258153 -3.98456763 -0.56275549 0 0 Z " fill="#EF363E" transform="translate(667.03125,426.33984375)"/>
<path d="M0 0 C0.33 0 0.66 0 1 0 C5.35181655 17.09642215 7.34449506 39.70122008 -1 56 C-2.485 56.495 -2.485 56.495 -4 57 C-3.79503906 56.21496094 -3.59007812 55.42992187 -3.37890625 54.62109375 C-3.10949219 53.57050781 -2.84007812 52.51992188 -2.5625 51.4375 C-2.29566406 50.40496094 -2.02882813 49.37242187 -1.75390625 48.30859375 C0.05406621 40.37412392 0.15136387 32.72749752 0.125 24.625 C0.12886719 23.44421875 0.13273438 22.2634375 0.13671875 21.046875 C0.13099883 15.9103858 0.06451025 10.87447302 -0.5703125 5.7734375 C-1 2 -1 2 0 0 Z " fill="#F14C54" transform="translate(645,438)"/>
<path d="M0 0 C4.27394266 1.42464755 5.33225755 4.54905752 7.375 8.3125 C7.77348145 9.03727539 8.17196289 9.76205078 8.58251953 10.50878906 C16.34860025 24.85152225 21.28843273 39.55933423 21 56 C20.01 56 19.02 56 18 56 C17.97421875 55.2471875 17.9484375 54.494375 17.921875 53.71875 C16.98665865 36.20469833 11.71833835 19.12076984 1.71875 4.5703125 C0 2 0 2 0 0 Z " fill="#F0373F" transform="translate(725,465)"/>
<path d="M0 0 C0.495 1.485 0.495 1.485 1 3 C0.4423999 2.90912109 -0.1152002 2.81824219 -0.68969727 2.72460938 C-16.52984067 0.18628131 -30.9075783 -1.40694341 -46.66015625 2.44140625 C-50.11413523 3.01908928 -52.60853323 2.77946953 -56 2 C-40.03531337 -6.7634318 -16.95550669 -4.50003969 0 0 Z " fill="#F1474E" transform="translate(761,354)"/>
<path d="M0 0 C0.66 0 1.32 0 2 0 C0.46810734 4.06218304 -1.4334018 7.83876948 -3.4375 11.6875 C-5.9395273 16.58481173 -7.99680528 21.39050602 -9.39453125 26.71875 C-10 29 -10 29 -10.98461914 31.75048828 C-11.9929382 34.97740019 -12.48608026 37.91764601 -12.8515625 41.2734375 C-12.98046875 42.42714844 -13.109375 43.58085937 -13.2421875 44.76953125 C-13.36851562 45.95933594 -13.49484375 47.14914062 -13.625 48.375 C-13.7590625 49.58800781 -13.893125 50.80101562 -14.03125 52.05078125 C-14.36002762 55.03326398 -14.6827446 58.01627334 -15 61 C-15.33 61 -15.66 61 -16 61 C-16.60896246 38.58115983 -12.40915662 20.50597745 -1 1 C-0.67 0.67 -0.34 0.34 0 0 Z " fill="#F04149" transform="translate(609,289)"/>
<path d="M0 0 C0.7125293 0.0714624 1.42505859 0.1429248 2.15917969 0.21655273 C9.87751917 0.93271957 17.50205896 1.12195882 25.25 1.0625 C26.38824219 1.05798828 27.52648437 1.05347656 28.69921875 1.04882812 C31.46620409 1.03720214 34.23307158 1.02086431 37 1 C37.495 1.99 37.495 1.99 38 3 C32.56449452 4.12489766 27.27433523 4.18357089 21.75 4.1875 C20.85925781 4.19974609 19.96851563 4.21199219 19.05078125 4.22460938 C12.95351806 4.23788353 6.83619553 3.91626236 1 2 C0.67 1.34 0.34 0.68 0 0 Z " fill="#EF3139" transform="translate(555,447)"/>
<path d="M0 0 C0.99 0.33 1.98 0.66 3 1 C5.60756267 8.24322964 6.13359235 15.38523627 6 23 C5.01 23 4.02 23 3 23 C2.92652344 21.76636719 2.92652344 21.76636719 2.8515625 20.5078125 C2.3838056 13.52371816 1.58560773 6.81965265 0 0 Z " fill="#F14C53" transform="translate(740,498)"/>
<path d="M0 0 C1.16777492 3.53690297 0.89138151 6.40632688 0.44140625 10.078125 C0.30283203 11.23828125 0.16425781 12.3984375 0.02148438 13.59375 C-0.12998047 14.8003125 -0.28144531 16.006875 -0.4375 17.25 C-0.58509766 18.47203125 -0.73269531 19.6940625 -0.88476562 20.953125 C-1.25004194 23.96960038 -1.62202781 26.98509354 -2 30 C-2.33 30 -2.66 30 -3 30 C-3.05896868 26.85424793 -3.09391603 23.7086414 -3.125 20.5625 C-3.14175781 19.68400391 -3.15851562 18.80550781 -3.17578125 17.90039062 C-3.21887295 12.06146471 -2.7533476 6.59958253 -1 1 C-0.67 0.67 -0.34 0.34 0 0 Z " fill="#EF2B33" transform="translate(596,320)"/>
<path d="M0 0 C3 0 3 0 4.61328125 1.50390625 C5.17402344 2.18324219 5.73476563 2.86257813 6.3125 3.5625 C6.91835938 4.28566406 7.52421875 5.00882812 8.1484375 5.75390625 C8.75945312 6.49511719 9.37046875 7.23632812 10 8 C11.14329607 9.3355096 12.28890491 10.66904503 13.4375 12 C14.283125 12.99 15.12875 13.98 16 15 C13 15 13 15 10.1171875 12.48046875 C9.02862749 11.39057798 7.9481771 10.29254103 6.875 9.1875 C6.32457031 8.64029297 5.77414062 8.09308594 5.20703125 7.52929688 C2.77082163 5.06016551 1.11055427 3.3316628 0 0 Z " fill="#EF333B" transform="translate(499,412)"/>
<path d="M0 0 C3.05086686 0.87430574 6.02976582 1.883529 9 3 C8.67 3.66 8.34 4.32 8 5 C6.741875 4.71125 5.48375 4.4225 4.1875 4.125 C-1.18101507 2.92819728 -6.58344556 1.95169368 -12 1 C-7.77872156 -1.81418562 -4.8312963 -0.95264998 0 0 Z " fill="#F03E46" transform="translate(670,427)"/>
<path d="M0 0 C0.33 0 0.66 0 1 0 C1.22595954 3.10314787 1.42770896 6.20740807 1.625 9.3125 C1.68945312 10.19357422 1.75390625 11.07464844 1.8203125 11.98242188 C1.871875 12.82998047 1.9234375 13.67753906 1.9765625 14.55078125 C2.02893066 15.33106689 2.08129883 16.11135254 2.13525391 16.9152832 C2 19 2 19 0 22 C-1.87744205 14.72491206 -1.06755357 7.3394308 0 0 Z " fill="#F1464E" transform="translate(594,342)"/>
<path d="M0 0 C0.66 0 1.32 0 2 0 C0.23570801 4.97209562 -2.3939166 9.43438061 -5 14 C-5.66 13.34 -6.32 12.68 -7 12 C-6.02296079 10.1863523 -5.04330895 8.37411183 -4.0625 6.5625 C-3.51722656 5.55316406 -2.97195313 4.54382813 -2.41015625 3.50390625 C-1 1 -1 1 0 0 Z " fill="#EF3038" transform="translate(609,289)"/>
<path d="M0 0 C-2.26562673 2.26562673 -3.84160705 2.94462749 -7.04296875 3.09765625 C-7.75066406 3.08605469 -8.45835937 3.07445312 -9.1875 3.0625 C-11.0746875 3.0315625 -11.0746875 3.0315625 -13 3 C-13 2.34 -13 1.68 -13 1 C-8.61414671 0.29826347 -4.44209357 -0.10834375 0 0 Z " fill="#F03840" transform="translate(605,446)"/>
<path d="M0 0 C4.97306516 0.49730652 8.63799813 1.55302334 13 4 C13 4.33 13 4.66 13 5 C8.02693484 4.50269348 4.36200187 3.44697666 0 1 C0 0.67 0 0.34 0 0 Z " fill="#EF3039" transform="translate(678,431)"/>
<path d="M0 0 C2.97 0.33 5.94 0.66 9 1 C8.67 1.99 8.34 2.98 8 4 C3.545 3.01 3.545 3.01 -1 2 C-0.67 1.34 -0.34 0.68 0 0 Z " fill="#F2545B" transform="translate(548,445)"/>
<path d="M0 0 C3.40312738 1.05875074 6.01353231 2.00902154 9 4 C8.67 4.66 8.34 5.32 8 6 C4.65750371 5.40312566 2.53563658 4.26396123 0 2 C0 1.34 0 0.68 0 0 Z " fill="#F14A51" transform="translate(625,416)"/>
</svg>
