<?xml version="1.0" encoding="UTF-8"?>
<svg version="1.1" xmlns="http://www.w3.org/2000/svg" width="330" height="220">
<path d="M0 0 C108.9 0 217.8 0 330 0 C330 72.6 330 145.2 330 220 C221.1 220 112.2 220 0 220 C0 147.4 0 74.8 0 0 Z " fill="#DA251C" transform="translate(0,0)"/>
<path d="M0 0 C0.66 0 1.32 0 2 0 C3.86085514 5.60198106 5.71197381 11.20705038 7.55419922 16.81518555 C8.18207435 18.72198755 8.81258684 20.62792324 9.44580078 22.53295898 C10.3562623 25.27363395 11.25714914 28.01729903 12.15625 30.76171875 C12.5827887 32.03543587 12.5827887 32.03543587 13.01794434 33.33488464 C13.27821411 34.13533707 13.53848389 34.93578949 13.80664062 35.76049805 C14.15305603 36.80973701 14.15305603 36.80973701 14.50646973 37.88017273 C15 40 15 40 15 45 C30.51 45 46.02 45 62 45 C58.82549888 48.17450112 56.26066348 50.70824601 52.7421875 53.26953125 C51.95642334 53.84493652 51.17065918 54.4203418 50.36108398 55.01318359 C49.13047241 55.90384521 49.13047241 55.90384521 47.875 56.8125 C47.03203369 57.42689941 46.18906738 58.04129883 45.32055664 58.67431641 C43.64700239 59.89369595 41.97230851 61.11151319 40.29638672 62.32763672 C38.31489004 63.77067863 36.34361734 65.22565145 34.37890625 66.69140625 C32.92291016 67.77228516 32.92291016 67.77228516 31.4375 68.875 C30.61121094 69.49117188 29.78492188 70.10734375 28.93359375 70.7421875 C27 72 27 72 25 72 C25.35304199 73.04341553 25.70608398 74.08683105 26.06982422 75.16186523 C27.39026497 79.06849854 28.70455652 82.97717825 30.01708984 86.88647461 C30.58379809 88.5716011 31.15212726 90.25618344 31.72216797 91.94018555 C32.54571249 94.37404087 33.36322409 96.80985517 34.1796875 99.24609375 C34.43185028 99.98709824 34.68401306 100.72810272 34.94381714 101.49156189 C36.64719825 106.60009765 37.92530242 111.7241722 39 117 C36.31197996 115.6796251 33.8626642 114.29901597 31.41796875 112.56640625 C30.74024414 112.0871167 30.06251953 111.60782715 29.36425781 111.11401367 C28.64592773 110.60201416 27.92759766 110.09001465 27.1875 109.5625 C26.44209961 109.03696533 25.69669922 108.51143066 24.92871094 107.9699707 C21.14021826 105.28732349 17.39868965 102.56165086 13.72265625 99.7265625 C13.05274658 99.21536865 12.38283691 98.7041748 11.69262695 98.17749023 C10.42203044 97.20294575 9.1609192 96.21587564 7.91088867 95.21508789 C5.48917556 93.36522954 3.68779702 92.04473477 0.59765625 91.84375 C-3.42988525 93.6364602 -6.79443859 96.17752844 -10.3125 98.8125 C-11.48498291 99.67524536 -11.48498291 99.67524536 -12.68115234 100.55541992 C-15.12819309 102.36051292 -17.56510163 104.17856953 -20 106 C-21.18843506 106.88558594 -21.18843506 106.88558594 -22.40087891 107.7890625 C-26.94602945 111.17679953 -31.47831449 114.58101436 -36 118 C-36.66 117.67 -37.32 117.34 -38 117 C-36.1874097 111.39422735 -34.37257026 105.78918975 -32.55566406 100.18481445 C-31.93818645 98.27908934 -31.32131846 96.37316658 -30.70507812 94.46704102 C-29.8180189 91.72359575 -28.92875296 88.98087417 -28.0390625 86.23828125 C-27.76502594 85.38913651 -27.49098938 84.53999176 -27.20864868 83.66511536 C-25.92637822 79.71923816 -24.61240442 75.82690924 -23 72 C-23.70253906 71.7628125 -24.40507812 71.525625 -25.12890625 71.28125 C-28.52096557 69.76751469 -31.03244648 67.81525072 -33.9375 65.5 C-39.24874127 61.30784712 -44.66840919 57.32530996 -50.24194336 53.48828125 C-53.97266667 50.87890927 -56.70274281 48.29725719 -60 45 C-44.49 45 -28.98 45 -13 45 C-12.67 42.36 -12.34 39.72 -12 37 C-11.42417908 34.63330078 -11.42417908 34.63330078 -10.78491211 32.6953125 C-10.54473862 31.95514893 -10.30456512 31.21498535 -10.05711365 30.45239258 C-9.79978958 29.68435303 -9.54246552 28.91631348 -9.27734375 28.125 C-9.01240616 27.31506592 -8.74746857 26.50513184 -8.47450256 25.6706543 C-7.63564742 23.11146979 -6.78676391 20.55574681 -5.9375 18 C-5.36326333 16.25412614 -4.7896891 14.50803424 -4.21679688 12.76171875 C-2.81884187 8.50525413 -1.41188984 4.25186166 0 0 Z " fill="#FEFC00" transform="translate(164,45)"/>
</svg>
